<svg xmlns="http://www.w3.org/2000/svg" xmlns:xlink="http://www.w3.org/1999/xlink" width="2944" zoomAndPan="magnify" viewBox="0 0 2208 1247.999941" height="1664" preserveAspectRatio="xMidYMid meet" version="1.0"><defs><g/><clipPath id="2892820bb5"><path d="M 639.402344 159.402344 L 1568.652344 159.402344 L 1568.652344 1088.652344 L 639.402344 1088.652344 Z M 639.402344 159.402344 " clip-rule="nonzero"/></clipPath><clipPath id="825ac419bc"><path d="M 927.390625 456.664062 L 1280.640625 456.664062 L 1280.640625 791.164062 L 927.390625 791.164062 Z M 927.390625 456.664062 " clip-rule="nonzero"/></clipPath></defs><g clip-path="url(#2892820bb5)"><path fill="#ffffff" d="M 1103.996094 1088.59375 C 847.898438 1088.59375 639.402344 880.097656 639.402344 623.996094 C 639.402344 367.898438 847.898438 159.402344 1103.996094 159.402344 C 1360.097656 159.402344 1568.59375 367.898438 1568.59375 623.996094 C 1568.59375 880.097656 1360.097656 1088.59375 1103.996094 1088.59375 Z M 1103.996094 166.265625 C 851.558594 166.265625 646.265625 371.558594 646.265625 623.996094 C 646.265625 876.433594 851.558594 1081.726562 1103.996094 1081.726562 C 1356.433594 1081.726562 1561.726562 876.433594 1561.726562 623.996094 C 1561.726562 371.558594 1356.433594 166.265625 1103.996094 166.265625 Z M 1103.996094 166.265625 " fill-opacity="1" fill-rule="nonzero"/></g><g clip-path="url(#825ac419bc)"><path fill="#ffffff" d="M 1280.398438 633.0625 C 1280.398438 640.542969 1274.332031 646.609375 1266.851562 646.609375 C 1261.839844 646.609375 1259.9375 648.234375 1255.492188 652.253906 C 1249.917969 657.195312 1241.449219 664.746094 1226.136719 664.746094 C 1210.828125 664.746094 1202.359375 657.265625 1196.785156 652.253906 C 1192.339844 648.304688 1190.433594 646.609375 1185.425781 646.609375 C 1180.414062 646.609375 1178.582031 648.234375 1174.066406 652.253906 C 1168.492188 657.195312 1160.023438 664.746094 1144.710938 664.746094 C 1129.402344 664.746094 1120.933594 657.265625 1115.359375 652.253906 C 1110.914062 648.304688 1109.007812 646.609375 1104 646.609375 C 1098.988281 646.609375 1097.15625 648.234375 1092.640625 652.253906 C 1087.066406 657.195312 1078.597656 664.746094 1063.285156 664.746094 C 1047.976562 664.746094 1039.507812 657.265625 1033.933594 652.253906 C 1029.488281 648.304688 1027.582031 646.609375 1022.574219 646.609375 C 1017.5625 646.609375 1015.730469 648.234375 1011.214844 652.253906 C 1005.640625 657.195312 997.171875 664.746094 981.859375 664.746094 C 966.550781 664.746094 958.082031 657.265625 952.507812 652.253906 C 948.0625 648.304688 946.15625 646.609375 941.148438 646.609375 C 933.667969 646.609375 927.601562 640.542969 927.601562 633.0625 C 927.601562 625.582031 933.667969 619.515625 941.148438 619.515625 C 956.460938 619.515625 964.925781 626.996094 970.5 632.003906 C 974.945312 635.957031 976.851562 637.648438 981.859375 637.648438 C 986.871094 637.648438 988.707031 636.027344 993.222656 632.003906 C 998.796875 627.066406 1007.261719 619.515625 1022.574219 619.515625 C 1037.886719 619.515625 1046.351562 626.996094 1051.925781 632.003906 C 1056.371094 635.957031 1058.277344 637.648438 1063.285156 637.648438 C 1068.296875 637.648438 1070.132812 636.027344 1074.648438 632.003906 C 1080.222656 627.066406 1088.6875 619.515625 1104 619.515625 C 1119.3125 619.515625 1127.777344 626.996094 1133.351562 632.003906 C 1137.796875 635.957031 1139.703125 637.648438 1144.710938 637.648438 C 1149.722656 637.648438 1151.558594 636.027344 1156.074219 632.003906 C 1161.648438 627.066406 1170.113281 619.515625 1185.425781 619.515625 C 1200.738281 619.515625 1209.203125 626.996094 1214.777344 632.003906 C 1219.222656 635.957031 1221.128906 637.648438 1226.136719 637.648438 C 1231.148438 637.648438 1232.984375 636.027344 1237.5 632.003906 C 1243.074219 627.066406 1251.539062 619.515625 1266.851562 619.515625 C 1274.332031 619.515625 1280.398438 625.582031 1280.398438 633.0625 Z M 935.503906 601.382812 L 1272.425781 601.382812 C 1276.660156 601.382812 1279.761719 597.5 1278.917969 593.335938 C 1262.6875 515.441406 1190.574219 456.664062 1104 456.664062 C 1017.421875 456.664062 945.3125 515.441406 929.082031 593.335938 C 928.234375 597.5 931.339844 601.382812 935.503906 601.382812 Z M 1262.335938 682.808594 L 945.664062 682.808594 C 938.183594 682.808594 932.117188 688.875 932.117188 696.355469 C 932.117188 703.835938 938.183594 709.972656 945.664062 709.972656 L 1262.265625 709.972656 C 1269.742188 709.972656 1275.8125 703.90625 1275.8125 696.425781 C 1275.8125 688.945312 1269.816406 682.808594 1262.335938 682.808594 Z M 1267.699219 728.035156 L 940.300781 728.035156 C 935.785156 728.035156 932.117188 731.707031 932.117188 736.222656 L 932.117188 765.714844 C 932.117188 779.898438 943.617188 791.328125 957.730469 791.328125 L 1250.199219 791.328125 C 1264.382812 791.328125 1275.8125 779.828125 1275.8125 765.714844 L 1275.8125 736.222656 C 1275.882812 731.707031 1272.214844 728.035156 1267.699219 728.035156 Z M 1267.699219 728.035156 " fill-opacity="1" fill-rule="nonzero"/></g><g fill="#ffffff" fill-opacity="1"><g transform="translate(835.367399, 486.807243)"><g><path d="M 4.09375 -105.75 C 20.582031 -116.820312 35.320312 -115.882812 48.3125 -102.9375 C 57.539062 -93.726562 61.148438 -83.445312 59.140625 -72.09375 C 57.128906 -60.75 49.5 -48.429688 36.25 -35.140625 C 27.351562 -26.210938 20.023438 -19.269531 14.265625 -14.3125 L 14.109375 -14.15625 L -14.484375 -44.203125 L -83.421875 -111.390625 L -56.578125 -138.625 C -47.472656 -147.75 -38.4375 -152.75 -29.46875 -153.625 C -20.507812 -154.5 -12.175781 -151.09375 -4.46875 -143.40625 C 1.007812 -137.945312 4.460938 -131.976562 5.890625 -125.5 C 7.316406 -119.019531 6.71875 -112.4375 4.09375 -105.75 Z M -15.546875 -129.5625 C -20.816406 -134.820312 -26.082031 -137.195312 -31.34375 -136.6875 C -36.613281 -136.175781 -42.484375 -132.675781 -48.953125 -126.1875 L -61.234375 -113.859375 L -28.828125 -80.9375 L -11.6875 -97.21875 C -4.414062 -108.96875 -5.703125 -119.75 -15.546875 -129.5625 Z M 27.890625 -47.125 C 36.179688 -55.445312 40.976562 -63.410156 42.28125 -71.015625 C 43.582031 -78.617188 41.289062 -85.347656 35.40625 -91.203125 C 25.46875 -101.117188 13.566406 -100.546875 -0.296875 -89.484375 L -18.796875 -70.609375 L -4.625 -56.21875 L 16.203125 -36.34375 C 20.453125 -39.976562 24.347656 -43.570312 27.890625 -47.125 Z M 27.890625 -47.125 "/></g></g></g><g fill="#ffffff" fill-opacity="1"><g transform="translate(900.266417, 415.129614)"><g><path d="M 75.78125 -113.359375 L 82.484375 -99.40625 C 90.296875 -84.425781 92.203125 -70.65625 88.203125 -58.09375 C 84.203125 -45.539062 74.640625 -35.5 59.515625 -27.96875 C 45.035156 -20.75 31.90625 -19.242188 20.125 -23.453125 C 8.34375 -27.660156 -1.09375 -37.207031 -8.1875 -52.09375 L -16.328125 -68.921875 L -47.171875 -130.359375 L -31.984375 -137.921875 L 5.484375 -61.296875 C 11.097656 -49.703125 17.984375 -42.289062 26.140625 -39.0625 C 34.304688 -35.84375 43.582031 -36.820312 53.96875 -42 C 64.351562 -47.175781 70.863281 -53.863281 73.5 -62.0625 C 76.132812 -70.257812 74.671875 -79.769531 69.109375 -90.59375 L 29.359375 -168.484375 L 44.765625 -176.15625 Z M 75.78125 -113.359375 "/></g></g></g><g fill="#ffffff" fill-opacity="1"><g transform="translate(1002.319822, 362.084052)"><g><path d="M 68.046875 -65.203125 C 79.472656 -50.972656 93.53125 -35.503906 110.21875 -18.796875 L 110.28125 -16.640625 C 105.4375 -13.972656 100.347656 -11.992188 95.015625 -10.703125 L 92.5 -11.875 C 78.519531 -27.789062 65.8125 -43.441406 54.375 -58.828125 L 29.46875 -55.515625 L 30.546875 -47.421875 L 37.0625 -4.9375 L 19.8125 -2.640625 L 15.40625 -43.890625 L 1.640625 -139.15625 L 43.34375 -144.921875 C 56.695312 -146.703125 67.472656 -144.707031 75.671875 -138.9375 C 83.878906 -133.164062 88.816406 -124.035156 90.484375 -111.546875 C 91.734375 -102.171875 90.40625 -93.425781 86.5 -85.3125 C 82.59375 -77.207031 76.441406 -70.503906 68.046875 -65.203125 Z M 27.734375 -70.015625 L 53.390625 -72.796875 C 68.679688 -79.453125 75.222656 -91.082031 73.015625 -107.6875 C 71.859375 -116.34375 68.644531 -122.523438 63.375 -126.234375 C 58.113281 -129.953125 50.785156 -131.332031 41.390625 -130.375 L 20.8125 -126.96875 Z M 27.734375 -70.015625 "/></g></g></g><g fill="#ffffff" fill-opacity="1"><g transform="translate(1101.369227, 345.015372)"><g><path d="M 100.078125 -122.078125 C 114.285156 -119.347656 126.898438 -113.640625 137.921875 -104.953125 L 131.453125 -89.5625 L 129.265625 -89.546875 C 123.316406 -95.066406 117.671875 -99.285156 112.328125 -102.203125 C 106.992188 -105.128906 101.160156 -107.203125 94.828125 -108.421875 C 64.304688 -114.296875 45.414062 -98.390625 38.15625 -60.703125 C 34.664062 -42.554688 35.65625 -28.546875 41.125 -18.671875 C 46.59375 -8.796875 56.78125 -2.425781 71.6875 0.4375 C 75.625 1.195312 79.660156 1.613281 83.796875 1.6875 C 87.941406 1.757812 93.367188 1.414062 100.078125 0.65625 L 103.546875 -15.078125 L 107.234375 -35.375 L 123.3125 -33.59375 L 119.1875 -14.46875 L 114.359375 15.234375 C 104.671875 16.285156 96.1875 16.765625 88.90625 16.671875 C 81.632812 16.578125 74.691406 15.894531 68.078125 14.625 C 47.960938 10.75 33.972656 2.148438 26.109375 -11.171875 C 18.253906 -24.492188 16.394531 -41.914062 20.53125 -63.4375 C 25 -86.644531 34.097656 -103.234375 47.828125 -113.203125 C 61.554688 -123.179688 78.972656 -126.140625 100.078125 -122.078125 Z M 100.078125 -122.078125 "/></g></g></g><g fill="#ffffff" fill-opacity="1"><g transform="translate(1210.261623, 365.120633)"><g><path d="M 93.203125 34.859375 L 85.765625 46 L 17.609375 9.453125 L 38.15625 -26.59375 L 82.703125 -111.90625 L 151.0625 -75.25 L 151 -73.328125 L 143.5625 -62.21875 L 115.28125 -78.125 L 91.046875 -90.640625 L 69.328125 -51.078125 L 91.84375 -38.5 L 112.234375 -28.3125 L 112.640625 -26.375 L 105.03125 -15.359375 L 84.03125 -27.109375 L 62.34375 -38.5 L 52.5 -20.59375 L 39.546875 4.875 L 63.5 17.96875 L 93.078125 32.84375 Z M 93.203125 34.859375 "/></g></g></g><g fill="#ffffff" fill-opacity="1"><g transform="translate(1288.190163, 402.795797)"><g><path d="M 93.1875 14.109375 C 88.894531 31.835938 85.21875 52.414062 82.15625 75.84375 L 80.484375 77.203125 C 75.410156 74.992188 70.742188 72.175781 66.484375 68.75 L 65.859375 66.015625 C 69.929688 45.222656 74.578125 25.609375 79.796875 7.171875 L 61.953125 -10.546875 L 56.203125 -4.75 L 26.53125 26.34375 L 14.1875 14.078125 L 44.15625 -14.578125 L 111.234375 -83.640625 L 141.25 -54.125 C 150.800781 -44.632812 155.796875 -34.875 156.234375 -24.84375 C 156.679688 -14.820312 152.46875 -5.34375 143.59375 3.59375 C 136.925781 10.3125 129.1875 14.59375 120.375 16.4375 C 111.570312 18.289062 102.507812 17.515625 93.1875 14.109375 Z M 72.390625 -20.765625 L 90.25 -2.140625 C 104.851562 5.910156 118.054688 3.992188 129.859375 -7.890625 C 136.015625 -14.085938 138.957031 -20.40625 138.6875 -26.84375 C 138.414062 -33.28125 135.03125 -39.925781 128.53125 -46.78125 L 113.28125 -61.015625 Z M 72.390625 -20.765625 "/></g></g></g><g fill="#ffffff" fill-opacity="1"><g transform="translate(748.645714, 800.885291)"><g><path d="M 129.890625 -2.578125 C 135.515625 8.160156 137.832031 18.796875 136.84375 29.328125 L 123.875 32.875 L 122.8125 31.609375 C 125.03125 21.378906 123.71875 11.632812 118.875 2.375 C 113.582031 -7.71875 106.035156 -13.65625 96.234375 -15.4375 C 86.441406 -17.21875 74.847656 -14.597656 61.453125 -7.578125 C 47.953125 -0.515625 39.054688 7.585938 34.765625 16.734375 C 30.484375 25.890625 30.929688 35.410156 36.109375 45.296875 C 38.554688 49.972656 41.835938 54.175781 45.953125 57.90625 C 50.078125 61.644531 54.679688 64.617188 59.765625 66.828125 L 59.8125 68.84375 L 47.109375 74.078125 C 37.160156 67.503906 29.679688 59.4375 24.671875 49.875 C 17.492188 36.15625 16.367188 23.195312 21.296875 11 C 26.222656 -1.195312 36.925781 -11.609375 53.40625 -20.234375 C 70.300781 -29.078125 85.378906 -31.957031 98.640625 -28.875 C 111.910156 -25.789062 122.328125 -17.023438 129.890625 -2.578125 Z M 129.890625 -2.578125 "/></g></g></g><g fill="#ffffff" fill-opacity="1"><g transform="translate(801.66993, 899.40144)"><g><path d="M 122.890625 -43.375 C 134.304688 -32.382812 139.691406 -20.453125 139.046875 -7.578125 C 138.410156 5.285156 131.769531 18.285156 119.125 31.421875 C 105.488281 45.609375 91.742188 53.40625 77.890625 54.8125 C 64.035156 56.226562 51.101562 51.15625 39.09375 39.59375 C 27.84375 28.769531 22.664062 16.796875 23.5625 3.671875 C 24.457031 -9.441406 31.351562 -22.703125 44.25 -36.109375 C 57.550781 -49.953125 71 -57.492188 84.59375 -58.734375 C 98.1875 -59.972656 110.953125 -54.851562 122.890625 -43.375 Z M 114.125 -35.578125 C 96.832031 -52.210938 77.453125 -49.375 55.984375 -27.0625 C 44.585938 -15.207031 38.242188 -4.410156 36.953125 5.328125 C 35.671875 15.066406 39.265625 24.015625 47.734375 32.171875 C 65.035156 48.804688 84.617188 45.753906 106.484375 23.015625 C 117.640625 11.421875 123.820312 0.796875 125.03125 -8.859375 C 126.238281 -18.515625 122.601562 -27.421875 114.125 -35.578125 Z M 114.125 -35.578125 "/></g></g></g><g fill="#ffffff" fill-opacity="1"><g transform="translate(901.985512, 993.312866)"><g><path d="M 122.25 47.1875 L 110.15625 42.515625 L 120.28125 8.8125 L 135.25 -46.96875 L 134.0625 -47.421875 L 75.65625 14.921875 L 64.578125 10.65625 L 64.71875 -74.1875 L 63.375 -74.71875 L 37.375 -24.375 L 21.5 8.296875 L 10.078125 3.890625 L 62.875 -99.40625 L 78.15625 -93.515625 L 77.34375 -74.90625 L 77.03125 -4.609375 L 78.03125 -4.21875 L 126.59375 -57.0625 L 138.109375 -70.375 L 153.21875 -64.546875 Z M 122.25 47.1875 "/></g></g></g><g fill="#ffffff" fill-opacity="1"><g transform="translate(1055.869024, 1043.989007)"><g><path d="M 52.34375 -115.421875 C 63.625 -115.390625 72.316406 -112.453125 78.421875 -106.609375 C 84.523438 -100.765625 87.5625 -92.382812 87.53125 -81.46875 C 87.488281 -68.625 83.644531 -58.550781 76 -51.25 C 68.363281 -43.957031 57.828125 -40.332031 44.390625 -40.375 L 30.703125 -40.421875 L 30.6875 -35.921875 L 31.3125 0.09375 L 16.734375 0.046875 L 17.734375 -34.6875 L 17.0625 -115.328125 Z M 49.828125 -52.0625 C 57.273438 -53.238281 62.953125 -56.222656 66.859375 -61.015625 C 70.773438 -65.804688 72.742188 -72.21875 72.765625 -80.25 C 72.804688 -95.132812 64.910156 -102.898438 49.078125 -103.546875 L 31.59375 -103.046875 L 30.921875 -52.46875 Z M 49.828125 -52.0625 "/></g></g></g><g fill="#ffffff" fill-opacity="1"><g transform="translate(1166.658249, 1042.451265)"><g><path d="M 95.5 -29.9375 L 81.40625 -25.515625 L 75.40625 -35.703125 L 63.28125 -52.65625 L 38.390625 -45.4375 L 16.203125 -37.890625 L 15.234375 -17.59375 L 16.140625 -5.0625 L 2.40625 -0.75 L 8.25 -123.5 L 24.234375 -128.515625 Z M 55.84375 -63.15625 L 20.953125 -111.828125 L 19.765625 -111.46875 L 16.84375 -50.9375 L 36.203125 -56.625 Z M 55.84375 -63.15625 "/></g></g></g><g fill="#ffffff" fill-opacity="1"><g transform="translate(1284.514722, 1003.518648)"><g><path d="M 62.796875 -91.03125 L 83.734375 -64.4375 L 71.75 -55.21875 L -31.9375 -91.953125 L -32.65625 -91.390625 L 0.359375 -48.203125 L 23.671875 -18.21875 L 13.40625 -10.328125 L -7.03125 -37.75 L -56.828125 -101.84375 L -44.984375 -110.96875 L 58.546875 -74.15625 L 59.53125 -74.90625 L 3.53125 -147.40625 L 13.5625 -156.5 Z M 62.796875 -91.03125 "/></g></g></g><g fill="#ffffff" fill-opacity="1"><g transform="translate(1393.252241, 912.834249)"><g><path d="M 0.4375 -62.40625 L 28.859375 -44.359375 L 21.09375 -32.4375 L -6.71875 -51.390625 L -13.15625 -55.359375 L -95.25 -65.171875 L -86.796875 -78.15625 L -80.109375 -76.578125 L -22.90625 -69.4375 L -22.21875 -70.5 L -50.265625 -121.8125 L -54.515625 -127.796875 L -46.28125 -140.453125 L -6.265625 -66.96875 Z M 0.4375 -62.40625 "/></g></g></g><g fill="#ffffff" fill-opacity="1"><g transform="translate(1447.177232, 822.276894)"><g/></g></g><g fill="#ffffff" fill-opacity="1"><g transform="translate(717.47442, 646.874922)"><g><path d="M 37.671875 -8.734375 L 38.296875 -7.875 L 37.59375 0 L 6.078125 0 L 6.625 -14.96875 L 6.078125 -50.234375 L 37.90625 -50.234375 L 38.53125 -49.375 L 37.75 -41.5 L 25.734375 -41.890625 L 16.6875 -41.8125 L 16.453125 -29.71875 L 25.109375 -29.5625 L 33.3125 -29.796875 L 33.9375 -29.015625 L 33.234375 -21.140625 L 24.34375 -21.375 L 16.296875 -21.296875 L 16.21875 -15.90625 L 16.453125 -8.34375 L 25.265625 -8.265625 Z M 37.671875 -8.734375 "/></g></g></g><g fill="#ffffff" fill-opacity="1"><g transform="translate(757.176454, 646.874922)"><g><path d="M 22.234375 -50.859375 C 26.492188 -50.859375 30.726562 -50 34.9375 -48.28125 L 33.234375 -39.15625 L 31.671875 -38.53125 C 29.898438 -39.78125 28.066406 -40.769531 26.171875 -41.5 C 24.273438 -42.226562 22.546875 -42.59375 20.984375 -42.59375 C 18.898438 -42.59375 17.234375 -42.03125 15.984375 -40.90625 C 14.742188 -39.789062 14.125 -38.503906 14.125 -37.046875 C 14.125 -35.535156 14.8125 -34.257812 16.1875 -33.21875 C 17.5625 -32.1875 19.734375 -30.96875 22.703125 -29.5625 C 25.554688 -28.257812 27.878906 -27.050781 29.671875 -25.9375 C 31.472656 -24.820312 33.007812 -23.351562 34.28125 -21.53125 C 35.550781 -19.707031 36.1875 -17.46875 36.1875 -14.8125 C 36.1875 -11.957031 35.40625 -9.347656 33.84375 -6.984375 C 32.289062 -4.617188 30.082031 -2.742188 27.21875 -1.359375 C 24.363281 0.015625 21.0625 0.703125 17.3125 0.703125 C 12.375 0.703125 7.410156 -0.363281 2.421875 -2.5 L 3.90625 -12.328125 L 5.0625 -12.953125 C 7.144531 -11.128906 9.421875 -9.734375 11.890625 -8.765625 C 14.359375 -7.804688 16.554688 -7.328125 18.484375 -7.328125 C 20.773438 -7.328125 22.554688 -7.882812 23.828125 -9 C 25.097656 -10.125 25.734375 -11.46875 25.734375 -13.03125 C 25.734375 -14.6875 25.046875 -16.035156 23.671875 -17.078125 C 22.296875 -18.117188 20.070312 -19.367188 17 -20.828125 C 14.195312 -22.078125 11.910156 -23.242188 10.140625 -24.328125 C 8.367188 -25.421875 6.859375 -26.878906 5.609375 -28.703125 C 4.367188 -30.523438 3.75 -32.734375 3.75 -35.328125 C 3.75 -38.242188 4.523438 -40.882812 6.078125 -43.25 C 7.640625 -45.613281 9.820312 -47.472656 12.625 -48.828125 C 15.4375 -50.179688 18.640625 -50.859375 22.234375 -50.859375 Z M 22.234375 -50.859375 "/></g></g></g><g fill="#ffffff" fill-opacity="1"><g transform="translate(795.006487, 646.874922)"><g><path d="M 38.140625 -49.375 L 37.515625 -41.5 L 28.078125 -41.96875 L 24.953125 -41.96875 L 24.5625 -15.90625 L 25.03125 0 L 14.4375 0 L 14.96875 -14.96875 L 14.59375 -41.96875 L 11.46875 -41.96875 L 1.875 -41.5 L 1.171875 -42.359375 L 1.875 -50.234375 L 37.515625 -50.234375 Z M 38.140625 -49.375 "/></g></g></g><g fill="#ffffff" fill-opacity="1"><g transform="translate(827.844516, 646.874922)"><g><path d="M 9.125 -10.53125 C 10.738281 -10.53125 12 -10.0625 12.90625 -9.125 C 13.820312 -8.1875 14.28125 -6.882812 14.28125 -5.21875 C 14.28125 -3.457031 13.785156 -2.054688 12.796875 -1.015625 C 11.804688 0.0234375 10.453125 0.546875 8.734375 0.546875 C 7.015625 0.546875 5.703125 0.078125 4.796875 -0.859375 C 3.890625 -1.796875 3.4375 -3.125 3.4375 -4.84375 C 3.4375 -6.550781 3.941406 -7.925781 4.953125 -8.96875 C 5.960938 -10.007812 7.351562 -10.53125 9.125 -10.53125 Z M 9.125 -10.53125 "/></g></g></g><g fill="#ffffff" fill-opacity="1"><g transform="translate(1315.899439, 646.874922)"><g><path d="M 18.875 -39.859375 C 22.46875 -39.859375 25.40625 -39.007812 27.6875 -37.3125 C 29.976562 -35.625 31.125 -33.300781 31.125 -30.34375 C 31.125 -28.257812 30.429688 -25.957031 29.046875 -23.4375 C 27.671875 -20.914062 25.453125 -18.015625 22.390625 -14.734375 L 16.53125 -8.265625 L 16.6875 -7.953125 L 27.21875 -7.953125 L 34.234375 -8.578125 L 34.859375 -7.875 L 33.625 0.46875 L 24.1875 0 L 6.46875 0 L 3.59375 0.15625 L 3.046875 -0.234375 L 3.046875 -6.546875 L 13.578125 -16.921875 C 16.066406 -19.472656 17.910156 -21.578125 19.109375 -23.234375 C 20.304688 -24.898438 20.90625 -26.359375 20.90625 -27.609375 C 20.90625 -28.648438 20.515625 -29.484375 19.734375 -30.109375 C 18.953125 -30.734375 17.859375 -31.046875 16.453125 -31.046875 C 14.796875 -31.046875 13.054688 -30.628906 11.234375 -29.796875 C 9.410156 -28.960938 7.71875 -27.84375 6.15625 -26.4375 L 4.984375 -26.4375 L 3.28125 -34.46875 C 8.632812 -38.0625 13.832031 -39.859375 18.875 -39.859375 Z M 18.875 -39.859375 "/></g></g></g><g fill="#ffffff" fill-opacity="1"><g transform="translate(1352.637465, 646.874922)"><g><path d="M 21.0625 -40.015625 C 26.363281 -40.015625 30.457031 -38.296875 33.34375 -34.859375 C 36.226562 -31.429688 37.671875 -26.570312 37.671875 -20.28125 C 37.671875 -13.625 36.109375 -8.460938 32.984375 -4.796875 C 29.867188 -1.128906 25.453125 0.703125 19.734375 0.703125 C 14.429688 0.703125 10.320312 -1.007812 7.40625 -4.4375 C 4.5 -7.875 3.046875 -12.6875 3.046875 -18.875 C 3.046875 -25.582031 4.617188 -30.78125 7.765625 -34.46875 C 10.910156 -38.164062 15.34375 -40.015625 21.0625 -40.015625 Z M 20.28125 -30.421875 C 17.15625 -30.421875 14.835938 -29.546875 13.328125 -27.796875 C 11.828125 -26.054688 11.078125 -23.316406 11.078125 -19.578125 C 11.078125 -15.785156 11.828125 -12.976562 13.328125 -11.15625 C 14.835938 -9.332031 17.179688 -8.421875 20.359375 -8.421875 C 23.472656 -8.421875 25.796875 -9.289062 27.328125 -11.03125 C 28.867188 -12.78125 29.640625 -15.472656 29.640625 -19.109375 C 29.640625 -22.953125 28.859375 -25.796875 27.296875 -27.640625 C 25.734375 -29.492188 23.394531 -30.421875 20.28125 -30.421875 Z M 20.28125 -30.421875 "/></g></g></g><g fill="#ffffff" fill-opacity="1"><g transform="translate(1393.275501, 646.874922)"><g><path d="M 18.875 -39.859375 C 22.46875 -39.859375 25.40625 -39.007812 27.6875 -37.3125 C 29.976562 -35.625 31.125 -33.300781 31.125 -30.34375 C 31.125 -28.257812 30.429688 -25.957031 29.046875 -23.4375 C 27.671875 -20.914062 25.453125 -18.015625 22.390625 -14.734375 L 16.53125 -8.265625 L 16.6875 -7.953125 L 27.21875 -7.953125 L 34.234375 -8.578125 L 34.859375 -7.875 L 33.625 0.46875 L 24.1875 0 L 6.46875 0 L 3.59375 0.15625 L 3.046875 -0.234375 L 3.046875 -6.546875 L 13.578125 -16.921875 C 16.066406 -19.472656 17.910156 -21.578125 19.109375 -23.234375 C 20.304688 -24.898438 20.90625 -26.359375 20.90625 -27.609375 C 20.90625 -28.648438 20.515625 -29.484375 19.734375 -30.109375 C 18.953125 -30.734375 17.859375 -31.046875 16.453125 -31.046875 C 14.796875 -31.046875 13.054688 -30.628906 11.234375 -29.796875 C 9.410156 -28.960938 7.71875 -27.84375 6.15625 -26.4375 L 4.984375 -26.4375 L 3.28125 -34.46875 C 8.632812 -38.0625 13.832031 -39.859375 18.875 -39.859375 Z M 18.875 -39.859375 "/></g></g></g><g fill="#ffffff" fill-opacity="1"><g transform="translate(1430.013527, 646.874922)"><g><path d="M 31.203125 -39.234375 L 30.109375 -31.203125 L 29.328125 -30.421875 L 22.234375 -31.203125 L 13.1875 -31.203125 L 12.953125 -22.46875 L 17.78125 -21.453125 C 22.300781 -20.515625 25.5625 -19.046875 27.5625 -17.046875 C 29.570312 -15.046875 30.578125 -12.378906 30.578125 -9.046875 C 30.578125 -5.773438 29.742188 -2.875 28.078125 -0.34375 C 26.410156 2.175781 24.054688 4.125 21.015625 5.5 C 17.972656 6.875 14.503906 7.5625 10.609375 7.5625 C 7.898438 7.5625 5.039062 7.25 2.03125 6.625 L 1.484375 -1.484375 L 2.1875 -2.1875 C 5.613281 -0.988281 8.707031 -0.390625 11.46875 -0.390625 C 14.320312 -0.390625 16.582031 -1.050781 18.25 -2.375 C 19.914062 -3.707031 20.75 -5.460938 20.75 -7.640625 C 20.75 -9.410156 20.148438 -10.800781 18.953125 -11.8125 C 17.753906 -12.832031 15.804688 -13.578125 13.109375 -14.046875 L 5.609375 -15.359375 L 4.90625 -16.21875 L 5.296875 -38.453125 L 6.546875 -39.625 L 11.078125 -39.46875 L 22.46875 -39.46875 L 30.578125 -39.859375 Z M 31.203125 -39.234375 "/></g></g></g></svg>